Coordinates
version=1
nRows=13
nColumns=63
inDegrees=yes

Units are S.I. units (second, meters, Newtons, ...)
If the header above contains a line with 'inDegrees', this indicates whether rotational values are in degrees (yes) or radians (no).

endheader
time	pelvis_tilt	pelvis_list	pelvis_rotation	pelvis_tx	pelvis_ty	pelvis_tz	hip_flexion_r	hip_adduction_r	hip_rotation_r	knee_angle_r	knee_angle_r_beta	ankle_angle_r	subtalar_angle_r	mtp_angle_r	hip_flexion_l	hip_adduction_l	hip_rotation_l	knee_angle_l	knee_angle_l_beta	ankle_angle_l	subtalar_angle_l	mtp_angle_l	L5_S1_Flex_Ext	L5_S1_Lat_Bending	L5_S1_axial_rotation	L4_L5_Flex_Ext	L4_L5_Lat_Bending	L4_L5_axial_rotation	L3_L4_Flex_Ext	L3_L4_Lat_Bending	L3_L4_axial_rotation	L2_L3_Flex_Ext	L2_L3_Lat_Bending	L2_L3_axial_rotation	L1_L2_Flex_Ext	L1_L2_Lat_Bending	L1_L2_axial_rotation	L1_T12_Flex_Ext	L1_T12_Lat_Bending	L1_T12_axial_rotation	Abs_r3	Abs_r2	Abs_r1	Abs_t1	Abs_t2	neck_flexion	neck_bending	neck_rotation	arm_flex_r	arm_add_r	arm_rot_r	elbow_flex_r	pro_sup_r	wrist_flex_r	wrist_dev_r	arm_flex_l	arm_add_l	arm_rot_l	elbow_flex_l	pro_sup_l	wrist_flex_l	wrist_dev_l
0.961538	-1.812018	-5.083728	88.041681	0.235625	0.855795	0.595447	2.395297	-1.715248	4.146276	6.753822	0.117876	20.779195	2.687011	0.000000	0.753114	1.483097	-3.993537	1.923136	0.033565	17.261396	-9.635997	0.000000	0.074901	-0.129872	0.844625	0.139098	-0.172730	0.897414	0.123054	-0.315772	0.897414	0.085604	-0.315772	0.739047	0.069553	-0.264836	0.686258	0.042798	-0.201172	0.633469	0.535007	-1.469143	4.697551	0.000000	0.000000	28.019019	-0.915415	5.578748	15.878406	-1.865182	148.927982	6.720567	6.077787	1.405353	-10.521963	18.352794	-7.958448	104.036467	21.815355	86.966750	-9.561156	-12.745195
0.980769	-1.907892	-5.080073	88.046344	0.235694	0.855903	0.595431	2.394215	-1.798242	4.307044	6.732668	0.117507	20.945620	2.643910	0.000000	0.866208	1.555534	-4.288973	2.138765	0.037328	17.349842	-9.213791	0.000000	0.074601	-0.142299	0.843284	0.138542	-0.189258	0.895990	0.122563	-0.345986	0.895990	0.085262	-0.345986	0.737874	0.069275	-0.290176	0.685169	0.042627	-0.220421	0.632463	0.532870	-1.609717	4.690095	0.000000	0.000000	28.013828	-0.891747	5.563972	16.127908	-1.365136	154.817954	5.649579	2.386511	1.862148	-11.255690	18.236528	-8.307481	102.312429	22.282178	87.170146	-9.419633	-12.315409
1.000000	-1.982743	-5.066408	88.046167	0.235744	0.856023	0.595410	2.396488	-1.867758	4.380084	6.750009	0.117810	21.104614	2.679606	0.000000	0.969530	1.607283	-4.598185	2.359374	0.041179	17.452291	-8.789138	0.000000	0.073728	-0.151504	0.844526	0.136920	-0.201500	0.897309	0.121128	-0.368366	0.897309	0.084264	-0.368366	0.738961	0.068464	-0.308946	0.686178	0.042128	-0.234679	0.633395	0.526631	-1.713840	4.697003	0.000000	0.000000	28.005589	-0.915074	5.519706	16.270285	-1.003115	159.032878	4.887396	-0.090666	2.219602	-11.741462	18.150872	-8.613291	100.803035	22.687664	87.372120	-9.397281	-11.944047
1.019231	-2.032882	-5.044804	88.038745	0.235755	0.856150	0.595387	2.404869	-1.923285	4.330543	6.806686	0.118799	21.248582	2.829611	0.000000	1.059524	1.638533	-4.882923	2.573989	0.044925	17.552148	-8.418154	0.000000	0.072687	-0.156814	0.848571	0.134988	-0.208563	0.901607	0.119418	-0.381278	0.901607	0.083074	-0.381278	0.742500	0.067498	-0.319775	0.689464	0.041534	-0.242905	0.636428	0.519199	-1.773912	4.719499	0.000000	0.000000	27.994093	-0.981590	5.452253	16.303545	-0.804374	161.398631	4.469874	-1.282803	2.425702	-11.980126	18.111822	-8.821984	99.754834	22.956648	87.544654	-9.544568	-11.655219
1.038462	-2.057253	-5.015807	88.008529	0.235749	0.856280	0.595365	2.412347	-1.954690	4.301745	6.882693	0.120126	21.328677	2.909459	0.000000	1.127971	1.649102	-5.134759	2.766768	0.048289	17.630340	-8.133738	0.000000	0.071502	-0.158059	0.856421	0.132786	-0.210219	0.909947	0.117470	-0.384305	0.909947	0.081719	-0.384305	0.749368	0.066396	-0.322314	0.695842	0.040856	-0.244834	0.642316	0.510729	-1.787997	4.763156	0.000000	0.000000	27.981095	-1.076213	5.378611	16.233079	-0.773813	162.014087	4.362209	-1.221905	2.463822	-11.981047	18.115636	-8.912948	99.281273	23.062941	87.649822	-9.857611	-11.448125
1.057692	-2.056475	-4.985843	87.972390	0.235698	0.856412	0.595366	2.424664	-1.969171	4.180965	6.975544	0.121746	21.353641	3.049584	0.000000	1.186916	1.637225	-5.417647	2.945181	0.051403	17.714412	-7.827331	0.000000	0.070650	-0.155419	0.866630	0.131205	-0.206708	0.920795	0.116072	-0.377886	0.920795	0.080746	-0.377886	0.758302	0.065606	-0.316931	0.704137	0.040370	-0.240744	0.649973	0.504649	-1.758134	4.819938	0.000000	0.000000	27.965578	-1.196054	5.301372	16.092509	-0.944473	160.446524	4.662682	0.189539	2.294956	-11.754863	18.174219	-8.851463	99.521467	22.950224	87.658509	-10.333396	-11.357903
1.076923	-2.031226	-4.953381	87.918003	0.235615	0.856538	0.595389	2.439193	-1.968795	3.949639	7.078204	0.123538	21.328102	3.303229	0.000000	1.227671	1.602191	-5.909556	3.096441	0.054043	17.870122	-7.224793	0.000000	0.069536	-0.149041	0.881462	0.129136	-0.198225	0.936553	0.114241	-0.362378	0.936553	0.079473	-0.362378	0.771279	0.064571	-0.303924	0.716188	0.039733	-0.230865	0.661096	0.496691	-1.685982	4.902427	0.000000	0.000000	27.951888	-1.343795	5.204744	15.849790	-1.322771	156.574726	5.370031	3.277446	1.924077	-11.264366	18.269296	-8.663310	100.326005	22.656646	87.539917	-10.932846	-11.391654
1.096154	-2.021072	-4.929078	87.874520	0.235612	0.856687	0.595426	2.450219	-1.974120	3.771992	7.158320	0.124936	21.213400	3.419261	0.000000	1.265157	1.581935	-6.229043	3.219000	0.056182	17.928650	-6.876302	0.000000	0.069772	-0.145918	0.894302	0.129574	-0.194071	0.950196	0.114629	-0.354785	0.950196	0.079743	-0.354785	0.782514	0.064791	-0.297556	0.726620	0.039868	-0.226027	0.670726	0.498377	-1.650651	4.973839	0.000000	0.000000	27.938785	-1.482323	5.085020	15.798768	-1.357990	156.634118	5.271145	3.213405	1.952077	-11.342612	18.384289	-8.483070	101.228229	22.357708	87.470927	-11.603718	-11.397590
1.115385	-2.004788	-4.911468	87.834028	0.235620	0.856818	0.595483	2.457117	-1.969881	3.618699	7.215824	0.125940	21.033581	3.463338	0.000000	1.297449	1.557429	-6.472702	3.313891	0.057838	17.962543	-6.634681	0.000000	0.071011	-0.142267	0.907325	0.131875	-0.189216	0.964032	0.116664	-0.345909	0.964032	0.081159	-0.345909	0.793909	0.065941	-0.290112	0.737201	0.040576	-0.220372	0.680493	0.507225	-1.609356	5.046267	0.000000	0.000000	27.929208	-1.619885	4.959131	15.752676	-1.400307	156.647252	5.198222	3.142434	1.962766	-11.421365	18.506909	-8.310837	102.094928	22.084222	87.427324	-12.276159	-11.375230
1.134615	-1.990659	-4.897597	87.766903	0.235673	0.856931	0.595585	2.468415	-1.967755	3.469008	7.261635	0.126739	20.827022	3.534676	0.000000	1.322488	1.534477	-6.828987	3.386825	0.059111	18.039570	-6.253600	0.000000	0.072489	-0.139090	0.928802	0.134618	-0.184989	0.986852	0.119091	-0.338182	0.986852	0.082847	-0.338182	0.812702	0.067313	-0.283632	0.754652	0.041420	-0.215450	0.696602	0.517778	-1.573409	5.165719	0.000000	0.000000	27.923410	-1.757878	4.807047	15.727431	-1.475266	156.216398	5.244147	3.214461	1.940303	-11.508901	18.655792	-8.117943	103.072206	21.780964	87.337967	-12.952368	-11.409271
1.153846	-1.977757	-4.889205	87.693878	0.235769	0.857008	0.595699	2.470188	-1.958947	3.414656	7.272156	0.126923	20.575472	3.482472	0.000000	1.339815	1.514562	-7.002309	3.434214	0.059938	18.056230	-6.135654	0.000000	0.074754	-0.136519	0.950208	0.138826	-0.181570	1.009597	0.122813	-0.331931	1.009597	0.085436	-0.331931	0.831432	0.069417	-0.278389	0.772044	0.042714	-0.211467	0.712656	0.533960	-1.544325	5.284775	0.000000	0.000000	27.922134	-1.887593	4.661427	15.699363	-1.519083	156.101770	5.229013	3.200995	1.943105	-11.579863	18.768644	-8.002134	103.678633	21.605329	87.302818	-13.540522	-11.345848
1.173077	-1.965866	-4.884295	87.625344	0.235888	0.857047	0.595830	2.456399	-1.942606	3.489060	7.240384	0.126369	20.283416	3.257441	0.000000	1.350576	1.498090	-7.041922	3.460799	0.060402	18.044698	-6.184928	0.000000	0.077432	-0.134511	0.970208	0.143798	-0.178900	1.030846	0.127212	-0.327051	1.030846	0.088497	-0.327051	0.848932	0.071903	-0.274296	0.788294	0.044244	-0.208358	0.727656	0.553087	-1.521620	5.396004	0.000000	0.000000	27.924682	-1.997278	4.524818	15.668717	-1.535781	156.292611	5.155994	3.125040	1.966337	-11.640626	18.860260	-7.934740	104.078038	21.508836	87.279299	-14.061954	-11.241655
1.192308	-1.957632	-4.880457	87.574676	0.236017	0.857052	0.595983	2.433110	-1.928017	3.552863	7.186112	0.125421	20.000915	3.047734	0.000000	1.357597	1.483849	-7.042926	3.475370	0.060657	18.037824	-6.241547	0.000000	0.080137	-0.133391	0.985249	0.148823	-0.177410	1.046828	0.131657	-0.324326	1.046828	0.091589	-0.324326	0.862093	0.074415	-0.272011	0.800515	0.045790	-0.206622	0.738937	0.572412	-1.508943	5.479662	0.000000	0.000000	27.928529	-2.086084	4.403218	15.653010	-1.542173	156.392900	5.116997	3.111621	1.976995	-11.674623	18.926380	-7.912960	104.273136	21.472120	87.266534	-14.513433	-11.127427
